<svg xmlns="http://www.w3.org/2000/svg" viewBox="0 0 24 24" fill="currentColor">
  <path fill-rule="nonzero" d="
    M 12.71 16.71
    A 0.96 0.96 0 0 0 13 16
    v -4
    a 0.96 0.96 0 0 0 -0.29 -0.71
    A 0.96 0.96 0 0 0 12 11
    a 0.96 0.96 0 0 0 -0.71 0.29
    a 0.96 0.96 0 0 0 -0.29 0.71
    v 4
    c 0 0.28 0.1 0.52 0.29 0.71
    c 0.19 0.19 0.43 0.29 0.71 0.29
    c 0.28 0 0.52 -0.1 0.71 -0.29
    Z
    m 0 -8
    A 0.96 0.96 0 0 0 13 8
    a 0.96 0.96 0 0 0 -0.29 -0.71
    A 0.96 0.96 0 0 0 12 7
    a 0.96 0.96 0 0 0 -0.71 0.29
    A 0.96 0.96 0 0 0 11 8
    c 0 0.28 0.1 0.52 0.29 0.71
    c 0.19 0.19 0.43 0.29 0.71 0.29
    c 0.28 0 0.52 -0.1 0.71 -0.29
    Z
    M 12 22
    a 9.69 9.69 0 0 1 -3.9 -0.79
    a 9.99 9.99 0 0 1 -3.18 -2.14
    a 9.99 9.99 0 0 1 -2.14 -3.18
    A 9.69 9.69 0 0 1 2 12
    c 0 -1.38 0.26 -2.68 0.79 -3.9
    a 9.99 9.99 0 0 1 2.14 -3.18
    a 9.99 9.99 0 0 1 3.18 -2.14
    A 9.69 9.69 0 0 1 12 2
    c 1.38 0 2.68 0.26 3.9 0.79
    a 9.99 9.99 0 0 1 3.18 2.14
    a 9.99 9.99 0 0 1 2.14 3.18
    A 9.69 9.69 0 0 1 22 12
    a 9.69 9.69 0 0 1 -0.79 3.9
    a 9.99 9.99 0 0 1 -2.14 3.18
    a 9.99 9.99 0 0 1 -3.18 2.14
    A 9.69 9.69 0 0 1 12 22
    Z
    m 0 -2
    c 2.23 0 4.13 -0.77 5.68 -2.32
    C 19.23 16.13 20 14.23 20 12
    c 0 -2.23 -0.77 -4.12 -2.32 -5.68
    C 16.13 4.77 14.23 4 12 4
    c -2.23 0 -4.12 0.77 -5.68 2.32
    C 4.77 7.88 4 9.77 4 12
    c 0 2.23 0.77 4.13 2.32 5.68
    C 7.88 19.23 9.77 20 12 20
    Z
    M 12 12
    Z" />
</svg>
