<svg id="profile" xmlns="http://www.w3.org/2000/svg" viewBox="0 0 20 20" fill="#9aa0a6" width="16" height="16"><path fill-rule="nonzero" d="M 4.94,14.06 A 8.24,8.24 0 0 1 7.35,12.88 9.14,9.14 0 0 1 10,12.5 c 0.92,0 1.8,0.13 2.66,0.39 a 8.24,8.24 0 0 1 2.41,1.18 5.78,5.78 0 0 0 1.08,-1.89 A 6.64,6.64 0 0 0 16.5,10 c 0,-1.8 -0.63,-3.34 -1.89,-4.61 C 13.34,4.13 11.81,3.5 10,3.5 c -1.8,0 -3.34,0.63 -4.61,1.9 C 4.13,6.66 3.5,8.2 3.5,10 c 0,0.75 0.12,1.47 0.36,2.17 a 5.78,5.78 0 0 0 1.08,1.9 Z m 2.94,-3.44 A 2.9,2.9 0 0 1 7,8.5 c 0,-0.83 0.29,-1.54 0.88,-2.12 A 2.9,2.9 0 0 1 10,5.5 c 0.83,0 1.54,0.29 2.13,0.88 0.58,0.58 0.88,1.29 0.88,2.13 0,0.83 -0.29,1.54 -0.87,2.13 A 2.9,2.9 0 0 1 10,11.5 a 2.9,2.9 0 0 1 -2.12,-0.87 Z M 10,18 a 7.78,7.78 0 0 1 -3.1,-0.62 8.07,8.07 0 0 1 -2.55,-1.72 8.07,8.07 0 0 1 -1.72,-2.55 A 7.78,7.78 0 0 1 2,10 c 0,-1.11 0.21,-2.15 0.63,-3.11 a 8.12,8.12 0 0 1 1.72,-2.54 c 0.73,-0.73 1.58,-1.3 2.55,-1.72 A 7.78,7.78 0 0 1 10,2 a 7.75,7.75 0 0 1 3.11,0.63 8.12,8.12 0 0 1 2.54,1.72 c 0.73,0.73 1.3,1.58 1.72,2.54 A 7.75,7.75 0 0 1 18,10 a 7.78,7.78 0 0 1 -0.62,3.11 8.07,8.07 0 0 1 -1.72,2.55 c -0.73,0.73 -1.58,1.3 -2.54,1.72 A 7.75,7.75 0 0 1 10,18 Z m 2.08,-1.84 a 6.62,6.62 0 0 0 1.88,-1.01 7.36,7.36 0 0 0 -1.89,-0.85 A 7.31,7.31 0 0 0 10,14 c -0.71,0 -1.4,0.09 -2.07,0.28 -0.67,0.19 -1.3,0.48 -1.88,0.86 a 6.62,6.62 0 0 0 1.88,1.01 c 0.66,0.23 1.36,0.34 2.08,0.34 0.72,0 1.42,-0.11 2.08,-0.34 Z m -1.02,-6.59 c 0.29,-0.29 0.44,-0.64 0.44,-1.06 0,-0.42 -0.14,-0.77 -0.44,-1.06 A 1.44,1.44 0 0 0 10,7 c -0.42,0 -0.77,0.14 -1.06,0.44 A 1.44,1.44 0 0 0 8.5,8.5 c 0,0.42 0.14,0.77 0.44,1.06 0.29,0.29 0.64,0.44 1.06,0.44 0.42,0 0.77,-0.14 1.06,-0.44 Z M 10,8.5 Z m 0,6.65 Z" /></svg>