<svg viewBox="0 0 24 24" xmlns="http://www.w3.org/2000/svg">
  <path d="M12 18c-1.668 0-3.082-.582-4.25-1.75C6.582 15.082 6 13.668 6 12c0-1.668.582-3.082 1.75-4.25C8.918 6.582 10.332 6 12 6a5.68 5.68 0 0 1 2.512.563c.77.375 1.433.875 1.988 1.5V6H18v5h-5V9.5h2.73a4.443 4.443 0 0 0-1.585-1.457A4.332 4.332 0 0 0 12 7.5c-1.25 0-2.313.438-3.188 1.313S7.5 10.75 7.5 12c0 1.25.438 2.313 1.313 3.188C9.688 16.062 10.75 16.5 12 16.5c1.168 0 2.168-.387 3-1.156a4.425 4.425 0 0 0 1.438-2.844h1.542c-.125 1.555-.757 2.86-1.898 3.918C14.945 17.473 13.582 18 12 18Zm0 0"/>
</svg>
