<svg xmlns="http://www.w3.org/2000/svg" viewBox="0 0 24 24" fill="currentColor">
  <path fill-rule="nonzero" d="
    M 12 22
    a 9.69 9.69 0 0 1 -3.9 -0.79
    a 9.99 9.99 0 0 1 -3.18 -2.14
    a 9.99 9.99 0 0 1 -2.14 -3.18
    A 9.69 9.69 0 0 1 2 12
    c 0 -1.38 0.26 -2.68 0.79 -3.9
    a 9.99 9.99 0 0 1 2.14 -3.18
    a 9.99 9.99 0 0 1 3.18 -2.14
    A 9.69 9.69 0 0 1 12 2
    c 1.38 0 2.68 0.26 3.9 0.79
    a 9.99 9.99 0 0 1 3.18 2.14
    a 9.99 9.99 0 0 1 2.14 3.18
    A 9.69 9.69 0 0 1 22 12
    a 9.69 9.69 0 0 1 -0.79 3.9
    a 9.99 9.99 0 0 1 -2.14 3.18
    a 9.99 9.99 0 0 1 -3.18 2.14
    A 9.69 9.69 0 0 1 12 22
    Z
    m 0 -2
    c 2.23 0 4.13 -0.77 5.68 -2.32
    C 19.23 16.13 20 14.23 20 12
    c 0 -0.12 0 -0.24 -0.01 -0.36
    a 5.1 5.1 0 0 1 -0.01 -0.31
    a 1.99 1.99 0 0 1 -0.68 1.2
    A 1.93 1.93 0 0 1 18 13
    h -2
    c -0.55 0 -1.02 -0.19 -1.41 -0.59
    A 1.94 1.94 0 0 1 14 11
    v -1
    h -4
    V 8
    c 0 -0.55 0.2 -1.02 0.59 -1.41
    C 10.98 6.2 11.45 6 12 6
    h 1
    a 1.7 1.7 0 0 1 0.31 -1.01
    c 0.21 -0.29 0.46 -0.53 0.76 -0.71
    a 11.02 11.02 0 0 0 -1.01 -0.2
    A 7.2 7.2 0 0 0 12 4
    c -2.23 0 -4.12 0.77 -5.68 2.32
    C 4.77 7.88 4 9.77 4 12
    h 5
    c 1.1 0 2.04 0.39 2.82 1.18
    C 12.61 13.96 13 14.9 13 16
    v 1
    h -3
    v 2.75
    c 0.33 0.08 0.66 0.14 0.99 0.19
    c 0.33 0.04 0.66 0.06 1.01 0.06
    Z" />
</svg>
